<mxfile host="Electron" modified="2024-05-12T20:40:43.894Z" agent="Mozilla/5.0 (Windows NT 10.0; Win64; x64) AppleWebKit/537.36 (KHTML, like Gecko) draw.io/24.2.5 Chrome/120.0.6099.109 Electron/28.1.0 Safari/537.36" etag="jwxQXpTHPKZFaXsIN7cQ" version="24.2.5" type="device">
  <diagram name="Pagina-1" id="mD4ny_UwJCW5K_lFAApE">
    <mxGraphModel dx="420" dy="248" grid="1" gridSize="10" guides="1" tooltips="1" connect="1" arrows="1" fold="1" page="1" pageScale="1" pageWidth="827" pageHeight="1169" math="0" shadow="0">
      <root>
        <mxCell id="0" />
        <mxCell id="1" parent="0" />
        <mxCell id="ZZTYUCiUojpkaMTlcZXb-6" value="" style="endArrow=none;html=1;rounded=0;" edge="1" parent="1">
          <mxGeometry width="50" height="50" relative="1" as="geometry">
            <mxPoint x="270" y="820" as="sourcePoint" />
            <mxPoint x="340" y="820" as="targetPoint" />
          </mxGeometry>
        </mxCell>
        <mxCell id="ZZTYUCiUojpkaMTlcZXb-8" value="" style="shape=singleArrow;direction=north;whiteSpace=wrap;html=1;arrowWidth=0.3808905843098993;arrowSize=0.6576580700573631;flipV=0;" vertex="1" parent="1">
          <mxGeometry x="285.37" y="798.78" width="34.63" height="21.22" as="geometry" />
        </mxCell>
        <mxCell id="ZZTYUCiUojpkaMTlcZXb-9" style="edgeStyle=orthogonalEdgeStyle;rounded=0;orthogonalLoop=1;jettySize=auto;html=1;endArrow=oval;endFill=0;" edge="1" parent="1">
          <mxGeometry relative="1" as="geometry">
            <mxPoint x="349.82" y="868.85" as="targetPoint" />
            <mxPoint x="349.82" y="858.5" as="sourcePoint" />
          </mxGeometry>
        </mxCell>
        <mxCell id="ZZTYUCiUojpkaMTlcZXb-10" value="Saluto" style="whiteSpace=wrap;html=1;align=center;" vertex="1" parent="1">
          <mxGeometry x="319.9999999999999" y="840.0000000000002" width="45" height="18.5" as="geometry" />
        </mxCell>
        <mxCell id="ZZTYUCiUojpkaMTlcZXb-12" value="&lt;font style=&quot;font-size: 9px;&quot;&gt;Codice&lt;/font&gt;" style="text;html=1;align=center;verticalAlign=middle;whiteSpace=wrap;rounded=0;" vertex="1" parent="1">
          <mxGeometry x="284.13999999999993" y="739.6200000000003" width="42.67" height="20.03" as="geometry" />
        </mxCell>
        <mxCell id="ZZTYUCiUojpkaMTlcZXb-13" style="edgeStyle=orthogonalEdgeStyle;rounded=0;orthogonalLoop=1;jettySize=auto;html=1;exitX=0.75;exitY=0;exitDx=0;exitDy=0;endArrow=oval;endFill=1;" edge="1" parent="1">
          <mxGeometry relative="1" as="geometry">
            <mxPoint x="305.7599999999999" y="776.2100000000002" as="sourcePoint" />
            <mxPoint x="303.7599999999999" y="760.2100000000002" as="targetPoint" />
          </mxGeometry>
        </mxCell>
        <mxCell id="ZZTYUCiUojpkaMTlcZXb-15" value="&lt;font style=&quot;font-size: 8px;&quot;&gt;Lunghezza&lt;/font&gt;" style="text;html=1;align=center;verticalAlign=middle;whiteSpace=wrap;rounded=1;strokeColor=none;" vertex="1" parent="1">
          <mxGeometry x="266" y="863" width="39" height="24" as="geometry" />
        </mxCell>
        <mxCell id="ZZTYUCiUojpkaMTlcZXb-16" value="Messaggio" style="whiteSpace=wrap;html=1;align=center;" vertex="1" parent="1">
          <mxGeometry x="239.99999999999991" y="840.0000000000003" width="61" height="18.5" as="geometry" />
        </mxCell>
        <mxCell id="ZZTYUCiUojpkaMTlcZXb-17" value="&lt;span style=&quot;font-size: 8px;&quot;&gt;Nome&lt;/span&gt;" style="text;html=1;align=center;verticalAlign=middle;whiteSpace=wrap;rounded=1;strokeColor=none;" vertex="1" parent="1">
          <mxGeometry x="330.37" y="862" width="39" height="24" as="geometry" />
        </mxCell>
        <mxCell id="ZZTYUCiUojpkaMTlcZXb-19" value="&lt;span style=&quot;font-size: 8px;&quot;&gt;Contenuto&lt;/span&gt;" style="text;html=1;align=center;verticalAlign=middle;whiteSpace=wrap;rounded=1;strokeColor=none;" vertex="1" parent="1">
          <mxGeometry x="343" y="772" width="40" height="20" as="geometry" />
        </mxCell>
        <mxCell id="ZZTYUCiUojpkaMTlcZXb-20" style="edgeStyle=orthogonalEdgeStyle;rounded=0;orthogonalLoop=1;jettySize=auto;html=1;exitX=1;exitY=0.5;exitDx=0;exitDy=0;endArrow=oval;endFill=0;" edge="1" parent="1" source="ZZTYUCiUojpkaMTlcZXb-21">
          <mxGeometry relative="1" as="geometry">
            <mxPoint x="340.0028205128208" y="778.5500000000001" as="sourcePoint" />
            <mxPoint x="340" y="784" as="targetPoint" />
          </mxGeometry>
        </mxCell>
        <mxCell id="ZZTYUCiUojpkaMTlcZXb-21" value="Azione" style="whiteSpace=wrap;html=1;align=center;" vertex="1" parent="1">
          <mxGeometry x="270.3700000000001" y="768.7799999999999" width="60" height="30" as="geometry" />
        </mxCell>
        <mxCell id="ZZTYUCiUojpkaMTlcZXb-22" value="" style="endArrow=none;html=1;rounded=0;" edge="1" parent="1">
          <mxGeometry width="50" height="50" relative="1" as="geometry">
            <mxPoint x="340" y="840" as="sourcePoint" />
            <mxPoint x="340" y="819.5" as="targetPoint" />
          </mxGeometry>
        </mxCell>
        <mxCell id="ZZTYUCiUojpkaMTlcZXb-23" value="" style="endArrow=none;html=1;rounded=0;" edge="1" parent="1">
          <mxGeometry width="50" height="50" relative="1" as="geometry">
            <mxPoint x="270.37" y="840.5" as="sourcePoint" />
            <mxPoint x="270.37" y="819.5" as="targetPoint" />
          </mxGeometry>
        </mxCell>
        <mxCell id="ZZTYUCiUojpkaMTlcZXb-25" style="edgeStyle=orthogonalEdgeStyle;rounded=0;orthogonalLoop=1;jettySize=auto;html=1;endArrow=oval;endFill=0;" edge="1" parent="1">
          <mxGeometry relative="1" as="geometry">
            <mxPoint x="285.37" y="868.85" as="targetPoint" />
            <mxPoint x="285.37" y="858.5" as="sourcePoint" />
          </mxGeometry>
        </mxCell>
      </root>
    </mxGraphModel>
  </diagram>
</mxfile>
